<svg xmlns="http://www.w3.org/2000/svg" xmlns:xlink="http://www.w3.org/1999/xlink" viewBox="0 0 1251 1251"><defs><style>.cls-1,.cls-4{fill:none;}.cls-2{fill:url(#linear-gradient);}.cls-3{fill:#1f1e1e;}.cls-4{stroke:#fff;stroke-miterlimit:10;stroke-width:40px;}.cls-5{fill:#fff;}.cls-6{font-size:280px;font-family:Montserrat-ExtraBold, Montserrat;font-weight:800;}.cls-7{fill:url(#linear-gradient-2);}</style><linearGradient id="linear-gradient" x1="264.22" y1="929.52" x2="985.78" y2="207.96" gradientUnits="userSpaceOnUse"><stop offset="0" stop-color="#f42d49"/><stop offset="1" stop-color="#f46341"/></linearGradient><linearGradient id="linear-gradient-2" x1="442.34" y1="1121.24" x2="785.55" y2="778.02" gradientUnits="userSpaceOnUse"><stop offset="0" stop-color="#f44253"/><stop offset="1" stop-color="#f44c41"/></linearGradient></defs><title>XXXAIO_Logo_Transparent</title><g id="Background"><rect class="cls-1" width="1251" height="1251"/></g><g id="Body"><path class="cls-2" d="M1175,625a551.29,551.29,0,0,1-15.7,131H90.7A551.29,551.29,0,0,1,75,625C75,321.24,321.24,75,625,75S1175,321.24,1175,625Z"/><path class="cls-3" d="M1159.3,756c-58.76,240.51-275.68,419-534.3,419S149.46,996.51,90.7,756Z"/><line class="cls-1" x1="1251" y1="756" x2="1159.3" y2="756"/><path class="cls-1" d="M0,756"/><circle class="cls-4" cx="625" cy="625" r="550"/></g><g id="XXX"><path class="cls-5" d="M410,666.81,357.09,564l-52.2,102.83H222.4l93.08-167.76-89.06-164h81.39l51.1,95.73,50.38-95.73H487.4L398.33,495.26l94.91,171.55Z"/><path class="cls-5" d="M677.2,666.81,624.27,564,572.08,666.81H489.59l93.07-167.76-89.06-164H575l51.1,95.73,50.37-95.73h78.11L665.52,495.26l94.9,171.55Z"/><path class="cls-5" d="M944.38,666.81,891.46,564l-52.2,102.83H756.77l93.08-167.76-89.07-164h81.4l51.1,95.73,50.37-95.73h78.11L932.7,495.26l94.9,171.55Z"/></g><g id="AIO"><text class="cls-6" transform="translate(351.02 1026)">AIO</text><path class="cls-7" d="M501.94,987.92H419.06L403.66,1026H347.1l86.52-196h54.6L575,1026H517.34ZM485.7,947l-25.2-62.72L435.3,947Z"/><path class="cls-7" d="M590.7,830h55.44v196H590.7Z"/><path class="cls-7" d="M675.54,928c0-58.8,46.2-101.92,108.92-101.92S893.38,869.2,893.38,928s-46.2,101.92-108.92,101.92S675.54,986.8,675.54,928Zm161.84,0c0-33.88-23.24-56-52.92-56s-52.92,22.12-52.92,56,23.24,56,52.92,56S837.38,961.88,837.38,928Z"/></g></svg>